<mxfile host="app.diagrams.net" agent="Mozilla/5.0 (Macintosh; Intel Mac OS X 10_15_7) AppleWebKit/537.36 (KHTML, like Gecko) Chrome/136.0.0.0 Safari/537.36" version="26.2.14">
  <diagram name="Page-1" id="275PBp-YNAevk_aLIJiq">
    <mxGraphModel dx="1426" dy="808" grid="1" gridSize="10" guides="1" tooltips="1" connect="1" arrows="1" fold="1" page="1" pageScale="1" pageWidth="7873" pageHeight="3936" math="0" shadow="0">
      <root>
        <mxCell id="0" />
        <mxCell id="1" parent="0" />
        <mxCell id="9j896QkEd6_IccgxkxQX-1" value="" style="whiteSpace=wrap;html=1;aspect=fixed;" vertex="1" parent="1">
          <mxGeometry x="280" y="200" width="600" height="600" as="geometry" />
        </mxCell>
        <mxCell id="9j896QkEd6_IccgxkxQX-2" value="Faker" style="swimlane;whiteSpace=wrap;html=1;" vertex="1" parent="1">
          <mxGeometry x="1090" y="820" width="200" height="100" as="geometry" />
        </mxCell>
        <mxCell id="9j896QkEd6_IccgxkxQX-3" value="input - List Languages" style="whiteSpace=wrap;html=1;" vertex="1" parent="9j896QkEd6_IccgxkxQX-2">
          <mxGeometry y="20" width="200" height="40" as="geometry" />
        </mxCell>
        <mxCell id="9j896QkEd6_IccgxkxQX-4" value="output - Name, Address, Email, Phone, Company" style="whiteSpace=wrap;html=1;" vertex="1" parent="9j896QkEd6_IccgxkxQX-2">
          <mxGeometry y="60" width="200" height="40" as="geometry" />
        </mxCell>
        <mxCell id="9j896QkEd6_IccgxkxQX-5" value="&lt;div&gt;Cryptography GUI system&lt;/div&gt;&lt;div&gt;&lt;br&gt;&lt;/div&gt;by Omar &amp;amp; Neev&amp;nbsp;&lt;div&gt;322598558&amp;nbsp;&lt;/div&gt;" style="rounded=0;whiteSpace=wrap;html=1;" vertex="1" parent="1">
          <mxGeometry x="280" y="200" width="600" height="60" as="geometry" />
        </mxCell>
        <mxCell id="9j896QkEd6_IccgxkxQX-11" style="edgeStyle=orthogonalEdgeStyle;rounded=0;orthogonalLoop=1;jettySize=auto;html=1;" edge="1" parent="1" source="9j896QkEd6_IccgxkxQX-6" target="9j896QkEd6_IccgxkxQX-12">
          <mxGeometry relative="1" as="geometry">
            <mxPoint x="1040" y="320" as="targetPoint" />
          </mxGeometry>
        </mxCell>
        <mxCell id="9j896QkEd6_IccgxkxQX-6" value="Fake" style="rounded=1;whiteSpace=wrap;html=1;" vertex="1" parent="1">
          <mxGeometry x="720" y="290" width="120" height="60" as="geometry" />
        </mxCell>
        <mxCell id="9j896QkEd6_IccgxkxQX-7" value="Select Language" style="swimlane;fontStyle=1;align=center;verticalAlign=top;childLayout=stackLayout;horizontal=1;startSize=26;horizontalStack=0;resizeParent=1;resizeParentMax=0;resizeLast=0;collapsible=1;marginBottom=0;whiteSpace=wrap;html=1;" vertex="1" parent="1">
          <mxGeometry x="700" y="360" width="160" height="86" as="geometry" />
        </mxCell>
        <mxCell id="9j896QkEd6_IccgxkxQX-8" value="Deffault - English&amp;nbsp;" style="text;strokeColor=none;fillColor=none;align=left;verticalAlign=top;spacingLeft=4;spacingRight=4;overflow=hidden;rotatable=0;points=[[0,0.5],[1,0.5]];portConstraint=eastwest;whiteSpace=wrap;html=1;" vertex="1" parent="9j896QkEd6_IccgxkxQX-7">
          <mxGeometry y="26" width="160" height="26" as="geometry" />
        </mxCell>
        <mxCell id="9j896QkEd6_IccgxkxQX-9" value="" style="line;strokeWidth=1;fillColor=none;align=left;verticalAlign=middle;spacingTop=-1;spacingLeft=3;spacingRight=3;rotatable=0;labelPosition=right;points=[];portConstraint=eastwest;strokeColor=inherit;" vertex="1" parent="9j896QkEd6_IccgxkxQX-7">
          <mxGeometry y="52" width="160" height="8" as="geometry" />
        </mxCell>
        <mxCell id="9j896QkEd6_IccgxkxQX-10" value="Italian, Japanese, Hebrew" style="text;strokeColor=none;fillColor=none;align=left;verticalAlign=top;spacingLeft=4;spacingRight=4;overflow=hidden;rotatable=0;points=[[0,0.5],[1,0.5]];portConstraint=eastwest;whiteSpace=wrap;html=1;" vertex="1" parent="9j896QkEd6_IccgxkxQX-7">
          <mxGeometry y="60" width="160" height="26" as="geometry" />
        </mxCell>
        <mxCell id="9j896QkEd6_IccgxkxQX-12" value="After choosing the language, press Fake, and you will move to a new GUI that output the fake data" style="rounded=1;whiteSpace=wrap;html=1;" vertex="1" parent="1">
          <mxGeometry x="1000" y="250" width="120" height="140" as="geometry" />
        </mxCell>
        <mxCell id="9j896QkEd6_IccgxkxQX-13" value="Explore URL" style="swimlane;whiteSpace=wrap;html=1;" vertex="1" parent="1">
          <mxGeometry x="840" y="820" width="200" height="100" as="geometry" />
        </mxCell>
        <mxCell id="9j896QkEd6_IccgxkxQX-14" value="input - URL, str to search&amp;nbsp;" style="whiteSpace=wrap;html=1;" vertex="1" parent="9j896QkEd6_IccgxkxQX-13">
          <mxGeometry y="20" width="200" height="40" as="geometry" />
        </mxCell>
        <mxCell id="9j896QkEd6_IccgxkxQX-15" value="output - GUI with highlighted str you searched&amp;nbsp;" style="whiteSpace=wrap;html=1;" vertex="1" parent="9j896QkEd6_IccgxkxQX-13">
          <mxGeometry y="60" width="200" height="40" as="geometry" />
        </mxCell>
        <mxCell id="9j896QkEd6_IccgxkxQX-32" style="edgeStyle=orthogonalEdgeStyle;rounded=0;orthogonalLoop=1;jettySize=auto;html=1;" edge="1" parent="1" source="9j896QkEd6_IccgxkxQX-16" target="9j896QkEd6_IccgxkxQX-33">
          <mxGeometry relative="1" as="geometry">
            <mxPoint x="200" y="320" as="targetPoint" />
          </mxGeometry>
        </mxCell>
        <mxCell id="9j896QkEd6_IccgxkxQX-16" value="Explore URL" style="rounded=1;whiteSpace=wrap;html=1;" vertex="1" parent="1">
          <mxGeometry x="400" y="290" width="120" height="60" as="geometry" />
        </mxCell>
        <mxCell id="9j896QkEd6_IccgxkxQX-17" value="URL" style="html=1;whiteSpace=wrap;" vertex="1" parent="1">
          <mxGeometry x="450" y="360" width="170" height="20" as="geometry" />
        </mxCell>
        <mxCell id="9j896QkEd6_IccgxkxQX-18" value="search word / sentence" style="html=1;whiteSpace=wrap;" vertex="1" parent="1">
          <mxGeometry x="300" y="360" width="140" height="20" as="geometry" />
        </mxCell>
        <mxCell id="9j896QkEd6_IccgxkxQX-19" value="Hashing" style="swimlane;whiteSpace=wrap;html=1;" vertex="1" parent="1">
          <mxGeometry x="590" y="820" width="200" height="100" as="geometry" />
        </mxCell>
        <mxCell id="9j896QkEd6_IccgxkxQX-20" value="input - cipherText&lt;div&gt;&amp;nbsp;List = [SHA-256, fernet]&amp;nbsp;&lt;/div&gt;" style="whiteSpace=wrap;html=1;" vertex="1" parent="9j896QkEd6_IccgxkxQX-19">
          <mxGeometry y="20" width="200" height="40" as="geometry" />
        </mxCell>
        <mxCell id="9j896QkEd6_IccgxkxQX-21" value="output - hashed data" style="whiteSpace=wrap;html=1;" vertex="1" parent="9j896QkEd6_IccgxkxQX-19">
          <mxGeometry y="60" width="200" height="40" as="geometry" />
        </mxCell>
        <mxCell id="9j896QkEd6_IccgxkxQX-30" style="edgeStyle=orthogonalEdgeStyle;rounded=0;orthogonalLoop=1;jettySize=auto;html=1;" edge="1" parent="1" source="9j896QkEd6_IccgxkxQX-24" target="9j896QkEd6_IccgxkxQX-31">
          <mxGeometry relative="1" as="geometry">
            <mxPoint x="1000" y="560" as="targetPoint" />
          </mxGeometry>
        </mxCell>
        <mxCell id="9j896QkEd6_IccgxkxQX-24" value="Hashing" style="rounded=1;whiteSpace=wrap;html=1;" vertex="1" parent="1">
          <mxGeometry x="720" y="530" width="120" height="60" as="geometry" />
        </mxCell>
        <mxCell id="9j896QkEd6_IccgxkxQX-25" value="Select Hash" style="swimlane;fontStyle=1;align=center;verticalAlign=top;childLayout=stackLayout;horizontal=1;startSize=26;horizontalStack=0;resizeParent=1;resizeParentMax=0;resizeLast=0;collapsible=1;marginBottom=0;whiteSpace=wrap;html=1;" vertex="1" parent="1">
          <mxGeometry x="700" y="620" width="160" height="86" as="geometry" />
        </mxCell>
        <mxCell id="9j896QkEd6_IccgxkxQX-26" value="Deffault - SHA-256&amp;nbsp;" style="text;strokeColor=none;fillColor=none;align=left;verticalAlign=top;spacingLeft=4;spacingRight=4;overflow=hidden;rotatable=0;points=[[0,0.5],[1,0.5]];portConstraint=eastwest;whiteSpace=wrap;html=1;" vertex="1" parent="9j896QkEd6_IccgxkxQX-25">
          <mxGeometry y="26" width="160" height="26" as="geometry" />
        </mxCell>
        <mxCell id="9j896QkEd6_IccgxkxQX-27" value="" style="line;strokeWidth=1;fillColor=none;align=left;verticalAlign=middle;spacingTop=-1;spacingLeft=3;spacingRight=3;rotatable=0;labelPosition=right;points=[];portConstraint=eastwest;strokeColor=inherit;" vertex="1" parent="9j896QkEd6_IccgxkxQX-25">
          <mxGeometry y="52" width="160" height="8" as="geometry" />
        </mxCell>
        <mxCell id="9j896QkEd6_IccgxkxQX-28" value="Fernet" style="text;strokeColor=none;fillColor=none;align=left;verticalAlign=top;spacingLeft=4;spacingRight=4;overflow=hidden;rotatable=0;points=[[0,0.5],[1,0.5]];portConstraint=eastwest;whiteSpace=wrap;html=1;" vertex="1" parent="9j896QkEd6_IccgxkxQX-25">
          <mxGeometry y="60" width="160" height="26" as="geometry" />
        </mxCell>
        <mxCell id="9j896QkEd6_IccgxkxQX-29" value="data to hash" style="html=1;whiteSpace=wrap;" vertex="1" parent="1">
          <mxGeometry x="700" y="720" width="160" height="20" as="geometry" />
        </mxCell>
        <mxCell id="9j896QkEd6_IccgxkxQX-31" value="Select Hash option, data to Hash. The output will be hashed data" style="rounded=1;whiteSpace=wrap;html=1;" vertex="1" parent="1">
          <mxGeometry x="1000" y="485" width="120" height="150" as="geometry" />
        </mxCell>
        <mxCell id="9j896QkEd6_IccgxkxQX-33" value="Insert any URL, enter the wanted word to search. output will be the URL data with highlighted word" style="rounded=1;whiteSpace=wrap;html=1;" vertex="1" parent="1">
          <mxGeometry x="40" y="240" width="120" height="160" as="geometry" />
        </mxCell>
        <mxCell id="9j896QkEd6_IccgxkxQX-42" style="edgeStyle=orthogonalEdgeStyle;rounded=0;orthogonalLoop=1;jettySize=auto;html=1;" edge="1" parent="1" source="9j896QkEd6_IccgxkxQX-34" target="9j896QkEd6_IccgxkxQX-43">
          <mxGeometry relative="1" as="geometry">
            <mxPoint x="160" y="560" as="targetPoint" />
          </mxGeometry>
        </mxCell>
        <mxCell id="9j896QkEd6_IccgxkxQX-34" value="MSSP" style="rounded=1;whiteSpace=wrap;html=1;" vertex="1" parent="1">
          <mxGeometry x="400" y="530" width="120" height="60" as="geometry" />
        </mxCell>
        <mxCell id="9j896QkEd6_IccgxkxQX-35" value="MSSP" style="swimlane;whiteSpace=wrap;html=1;" vertex="1" parent="1">
          <mxGeometry x="330" y="820" width="200" height="100" as="geometry" />
        </mxCell>
        <mxCell id="9j896QkEd6_IccgxkxQX-36" value="input - numerical str, number of subsets (Kn), number of digits for each subset number" style="whiteSpace=wrap;html=1;" vertex="1" parent="9j896QkEd6_IccgxkxQX-35">
          <mxGeometry y="20" width="200" height="40" as="geometry" />
        </mxCell>
        <mxCell id="9j896QkEd6_IccgxkxQX-37" value="output - the common sums between the subsets" style="whiteSpace=wrap;html=1;" vertex="1" parent="9j896QkEd6_IccgxkxQX-35">
          <mxGeometry y="60" width="200" height="40" as="geometry" />
        </mxCell>
        <mxCell id="9j896QkEd6_IccgxkxQX-38" value="numerical str" style="html=1;whiteSpace=wrap;" vertex="1" parent="1">
          <mxGeometry x="300" y="610" width="320" height="20" as="geometry" />
        </mxCell>
        <mxCell id="9j896QkEd6_IccgxkxQX-39" value="Kd" style="html=1;whiteSpace=wrap;" vertex="1" parent="1">
          <mxGeometry x="480" y="640" width="140" height="20" as="geometry" />
        </mxCell>
        <mxCell id="9j896QkEd6_IccgxkxQX-40" value="Kn" style="html=1;whiteSpace=wrap;" vertex="1" parent="1">
          <mxGeometry x="300" y="640" width="140" height="20" as="geometry" />
        </mxCell>
        <mxCell id="9j896QkEd6_IccgxkxQX-43" value="insert any numerical str you want with the compatible Kn, Kd. the output will the common sums" style="rounded=1;whiteSpace=wrap;html=1;" vertex="1" parent="1">
          <mxGeometry x="40" y="485" width="120" height="150" as="geometry" />
        </mxCell>
      </root>
    </mxGraphModel>
  </diagram>
</mxfile>
